<mxfile host="app.diagrams.net" agent="Mozilla/5.0 (Windows NT 10.0; Win64; x64) AppleWebKit/537.36 (KHTML, like Gecko) Chrome/131.0.0.0 Safari/537.36 Edg/131.0.0.0" version="26.0.2" pages="15">
  <diagram id="QgYJ57VIjUv0aur7QHDK" name="第 1 页">
    <mxGraphModel dx="1212" dy="656" grid="1" gridSize="10" guides="1" tooltips="1" connect="1" arrows="1" fold="1" page="1" pageScale="1" pageWidth="827" pageHeight="1169" math="0" shadow="0">
      <root>
        <mxCell id="0" />
        <mxCell id="1" parent="0" />
        <mxCell id="DjvdTKwqsGYMlAUTt05r-1" value="" style="rounded=0;whiteSpace=wrap;html=1;" vertex="1" parent="1">
          <mxGeometry x="91" y="180" width="646" height="400" as="geometry" />
        </mxCell>
        <mxCell id="DjvdTKwqsGYMlAUTt05r-2" value="" style="rounded=1;whiteSpace=wrap;html=1;" vertex="1" parent="1">
          <mxGeometry x="236" y="200" width="356" height="250" as="geometry" />
        </mxCell>
        <mxCell id="DjvdTKwqsGYMlAUTt05r-3" value="&lt;font style=&quot;font-size: 30px;&quot;&gt;登入&lt;/font&gt;" style="text;strokeColor=none;align=center;fillColor=none;html=1;verticalAlign=middle;whiteSpace=wrap;rounded=0;" vertex="1" parent="1">
          <mxGeometry x="376" y="230" width="76" height="20" as="geometry" />
        </mxCell>
        <mxCell id="DjvdTKwqsGYMlAUTt05r-4" value="帳號" style="rounded=1;whiteSpace=wrap;html=1;" vertex="1" parent="1">
          <mxGeometry x="259" y="260" width="310" height="30" as="geometry" />
        </mxCell>
        <mxCell id="DjvdTKwqsGYMlAUTt05r-5" value="密碼" style="rounded=1;whiteSpace=wrap;html=1;" vertex="1" parent="1">
          <mxGeometry x="259" y="300" width="310" height="30" as="geometry" />
        </mxCell>
        <mxCell id="DjvdTKwqsGYMlAUTt05r-6" value="登入" style="rounded=1;whiteSpace=wrap;html=1;fillColor=#808080;" vertex="1" parent="1">
          <mxGeometry x="259" y="340" width="310" height="30" as="geometry" />
        </mxCell>
        <mxCell id="DjvdTKwqsGYMlAUTt05r-7" value="使用google登入" style="rounded=1;whiteSpace=wrap;html=1;fillColor=#808080;" vertex="1" parent="1">
          <mxGeometry x="259" y="380" width="310" height="30" as="geometry" />
        </mxCell>
        <mxCell id="DjvdTKwqsGYMlAUTt05r-8" value="還沒有帳號?點此註冊" style="text;strokeColor=none;align=center;fillColor=none;html=1;verticalAlign=middle;whiteSpace=wrap;rounded=0;" vertex="1" parent="1">
          <mxGeometry x="351" y="410" width="126" height="30" as="geometry" />
        </mxCell>
      </root>
    </mxGraphModel>
  </diagram>
  <diagram id="k6F07PkVkKD-r6Lop1Lk" name="第 2 页">
    <mxGraphModel dx="1212" dy="656" grid="1" gridSize="10" guides="1" tooltips="1" connect="1" arrows="1" fold="1" page="1" pageScale="1" pageWidth="827" pageHeight="1169" math="0" shadow="0">
      <root>
        <mxCell id="0" />
        <mxCell id="1" parent="0" />
        <mxCell id="t5SX46XaKKE3EgYs3D_a-1" value="" style="rounded=0;whiteSpace=wrap;html=1;" vertex="1" parent="1">
          <mxGeometry x="91" y="180" width="646" height="400" as="geometry" />
        </mxCell>
        <mxCell id="pI09bH8QGKPres74siQn-1" value="" style="rounded=1;whiteSpace=wrap;html=1;" vertex="1" parent="1">
          <mxGeometry x="236" y="200" width="356" height="250" as="geometry" />
        </mxCell>
        <mxCell id="pI09bH8QGKPres74siQn-2" value="&lt;font style=&quot;font-size: 30px;&quot;&gt;註冊&lt;/font&gt;" style="text;strokeColor=none;align=center;fillColor=none;html=1;verticalAlign=middle;whiteSpace=wrap;rounded=0;" vertex="1" parent="1">
          <mxGeometry x="376" y="220" width="76" height="20" as="geometry" />
        </mxCell>
        <mxCell id="pI09bH8QGKPres74siQn-3" value="選擇角色" style="rounded=1;whiteSpace=wrap;html=1;" vertex="1" parent="1">
          <mxGeometry x="259" y="260" width="310" height="30" as="geometry" />
        </mxCell>
        <mxCell id="pI09bH8QGKPres74siQn-4" value="學號或電子郵件" style="rounded=1;whiteSpace=wrap;html=1;" vertex="1" parent="1">
          <mxGeometry x="259" y="300" width="310" height="30" as="geometry" />
        </mxCell>
        <mxCell id="pI09bH8QGKPres74siQn-5" value="密碼" style="rounded=1;whiteSpace=wrap;html=1;fillColor=#FFFFFF;" vertex="1" parent="1">
          <mxGeometry x="259" y="340" width="310" height="30" as="geometry" />
        </mxCell>
        <mxCell id="9zB-RYPzBNiHCjq3Nn9u-1" value="註冊" style="rounded=1;whiteSpace=wrap;html=1;fillColor=#808080;" vertex="1" parent="1">
          <mxGeometry x="259" y="380" width="310" height="30" as="geometry" />
        </mxCell>
        <mxCell id="9zB-RYPzBNiHCjq3Nn9u-2" value="已有帳號?點此登入" style="text;strokeColor=none;align=center;fillColor=none;html=1;verticalAlign=middle;whiteSpace=wrap;rounded=0;" vertex="1" parent="1">
          <mxGeometry x="351" y="410" width="126" height="30" as="geometry" />
        </mxCell>
      </root>
    </mxGraphModel>
  </diagram>
  <diagram id="zWMgEyfHJ3ttpzDZe_y7" name="第 3 页">
    <mxGraphModel dx="1546" dy="395" grid="1" gridSize="10" guides="1" tooltips="1" connect="1" arrows="1" fold="1" page="1" pageScale="1" pageWidth="827" pageHeight="1169" math="0" shadow="0">
      <root>
        <mxCell id="0" />
        <mxCell id="1" parent="0" />
        <mxCell id="vZZIgx2Mmu8Py85ExFe8-1" value="" style="rounded=0;whiteSpace=wrap;html=1;" parent="1" vertex="1">
          <mxGeometry x="-232" y="150" width="646" height="400" as="geometry" />
        </mxCell>
        <mxCell id="vZZIgx2Mmu8Py85ExFe8-3" value="" style="endArrow=none;html=1;rounded=0;exitX=0;exitY=0.11;exitDx=0;exitDy=0;exitPerimeter=0;entryX=1;entryY=0.112;entryDx=0;entryDy=0;entryPerimeter=0;" parent="1" source="vZZIgx2Mmu8Py85ExFe8-1" target="vZZIgx2Mmu8Py85ExFe8-1" edge="1">
          <mxGeometry width="50" height="50" relative="1" as="geometry">
            <mxPoint x="110" y="250" as="sourcePoint" />
            <mxPoint x="160" y="200" as="targetPoint" />
          </mxGeometry>
        </mxCell>
        <mxCell id="vZZIgx2Mmu8Py85ExFe8-4" value="查詢教室" style="text;strokeColor=none;align=center;fillColor=none;html=1;verticalAlign=middle;whiteSpace=wrap;rounded=0;" parent="1" vertex="1">
          <mxGeometry x="-220" y="160" width="60" height="30" as="geometry" />
        </mxCell>
        <mxCell id="vZZIgx2Mmu8Py85ExFe8-6" value="申請管理" style="text;strokeColor=none;align=center;fillColor=none;html=1;verticalAlign=middle;whiteSpace=wrap;rounded=0;" parent="1" vertex="1">
          <mxGeometry x="-150" y="160" width="60" height="30" as="geometry" />
        </mxCell>
        <mxCell id="vZZIgx2Mmu8Py85ExFe8-7" value="使用者狀態管理" style="text;strokeColor=none;align=center;fillColor=none;html=1;verticalAlign=middle;whiteSpace=wrap;rounded=0;" parent="1" vertex="1">
          <mxGeometry x="-80" y="160" width="90" height="30" as="geometry" />
        </mxCell>
        <mxCell id="vZZIgx2Mmu8Py85ExFe8-8" value="教室地圖" style="text;strokeColor=none;align=center;fillColor=none;html=1;verticalAlign=middle;whiteSpace=wrap;rounded=0;" parent="1" vertex="1">
          <mxGeometry x="20" y="160" width="60" height="30" as="geometry" />
        </mxCell>
        <mxCell id="vZZIgx2Mmu8Py85ExFe8-9" value="資訊查詢" style="text;strokeColor=none;align=center;fillColor=none;html=1;verticalAlign=middle;whiteSpace=wrap;rounded=0;" parent="1" vertex="1">
          <mxGeometry x="90" y="160" width="60" height="30" as="geometry" />
        </mxCell>
        <mxCell id="MzxvAtUx7tTeIQeP956L-1" value="登出" style="rounded=1;whiteSpace=wrap;html=1;fillColor=#808080;" vertex="1" parent="1">
          <mxGeometry x="350" y="160" width="50" height="30" as="geometry" />
        </mxCell>
        <mxCell id="MzxvAtUx7tTeIQeP956L-2" value="" style="rounded=0;whiteSpace=wrap;html=1;" vertex="1" parent="1">
          <mxGeometry x="-219" y="210" width="620" height="40" as="geometry" />
        </mxCell>
        <mxCell id="MzxvAtUx7tTeIQeP956L-3" value="" style="rounded=0;whiteSpace=wrap;html=1;" vertex="1" parent="1">
          <mxGeometry x="-219" y="270" width="620" height="260" as="geometry" />
        </mxCell>
        <mxCell id="MzxvAtUx7tTeIQeP956L-4" value="" style="rounded=1;whiteSpace=wrap;html=1;" vertex="1" parent="1">
          <mxGeometry x="-210" y="280" width="600" height="40" as="geometry" />
        </mxCell>
        <mxCell id="MzxvAtUx7tTeIQeP956L-9" value="樓層" style="rounded=0;whiteSpace=wrap;html=1;" vertex="1" parent="1">
          <mxGeometry x="-210" y="215" width="70" height="30" as="geometry" />
        </mxCell>
        <mxCell id="MzxvAtUx7tTeIQeP956L-10" value="教室代號" style="rounded=0;whiteSpace=wrap;html=1;" vertex="1" parent="1">
          <mxGeometry x="-120" y="215" width="70" height="30" as="geometry" />
        </mxCell>
        <mxCell id="MzxvAtUx7tTeIQeP956L-12" value="帳號狀態" style="rounded=0;whiteSpace=wrap;html=1;" vertex="1" parent="1">
          <mxGeometry x="320" y="215" width="70" height="30" as="geometry" />
        </mxCell>
        <mxCell id="MzxvAtUx7tTeIQeP956L-13" value="&lt;font style=&quot;font-size: 8px;&quot;&gt;教室編號&lt;/font&gt;" style="text;strokeColor=none;align=center;fillColor=none;html=1;verticalAlign=middle;whiteSpace=wrap;rounded=0;" vertex="1" parent="1">
          <mxGeometry x="-210" y="285" width="45" height="30" as="geometry" />
        </mxCell>
        <mxCell id="MzxvAtUx7tTeIQeP956L-18" value="&lt;font style=&quot;font-size: 8px;&quot;&gt;樓層&lt;/font&gt;" style="text;strokeColor=none;align=center;fillColor=none;html=1;verticalAlign=middle;whiteSpace=wrap;rounded=0;" vertex="1" parent="1">
          <mxGeometry x="-165" y="285" width="45" height="30" as="geometry" />
        </mxCell>
        <mxCell id="MzxvAtUx7tTeIQeP956L-19" value="&lt;font style=&quot;font-size: 8px;&quot;&gt;教室狀態&lt;/font&gt;" style="text;strokeColor=none;align=center;fillColor=none;html=1;verticalAlign=middle;whiteSpace=wrap;rounded=0;" vertex="1" parent="1">
          <mxGeometry x="-120" y="285" width="45" height="30" as="geometry" />
        </mxCell>
        <mxCell id="MzxvAtUx7tTeIQeP956L-22" value="&lt;font style=&quot;font-size: 8px;&quot;&gt;鑰匙狀態&lt;/font&gt;" style="text;strokeColor=none;align=center;fillColor=none;html=1;verticalAlign=middle;whiteSpace=wrap;rounded=0;" vertex="1" parent="1">
          <mxGeometry x="-70" y="285" width="45" height="30" as="geometry" />
        </mxCell>
        <mxCell id="MzxvAtUx7tTeIQeP956L-23" value="&lt;font style=&quot;font-size: 8px;&quot;&gt;借用人&lt;/font&gt;" style="text;strokeColor=none;align=center;fillColor=none;html=1;verticalAlign=middle;whiteSpace=wrap;rounded=0;" vertex="1" parent="1">
          <mxGeometry x="-20" y="285" width="45" height="30" as="geometry" />
        </mxCell>
        <mxCell id="MzxvAtUx7tTeIQeP956L-24" value="&lt;font style=&quot;font-size: 8px;&quot;&gt;更改鑰匙狀態&lt;/font&gt;" style="rounded=1;whiteSpace=wrap;html=1;fillColor=#808080;" vertex="1" parent="1">
          <mxGeometry x="330" y="290" width="50" height="20" as="geometry" />
        </mxCell>
        <mxCell id="MzxvAtUx7tTeIQeP956L-25" value="&lt;span style=&quot;font-size: 8px;&quot;&gt;解禁教室&lt;/span&gt;" style="rounded=1;whiteSpace=wrap;html=1;fillColor=#808080;" vertex="1" parent="1">
          <mxGeometry x="280" y="290" width="40" height="20" as="geometry" />
        </mxCell>
        <mxCell id="MzxvAtUx7tTeIQeP956L-26" value="&lt;span style=&quot;font-size: 8px;&quot;&gt;禁用教室&lt;/span&gt;" style="rounded=1;whiteSpace=wrap;html=1;fillColor=#808080;" vertex="1" parent="1">
          <mxGeometry x="230" y="290" width="40" height="20" as="geometry" />
        </mxCell>
        <mxCell id="MzxvAtUx7tTeIQeP956L-27" value="&lt;span style=&quot;font-size: 8px;&quot;&gt;申請&lt;/span&gt;" style="rounded=1;whiteSpace=wrap;html=1;fillColor=#808080;" vertex="1" parent="1">
          <mxGeometry x="180" y="290" width="40" height="20" as="geometry" />
        </mxCell>
        <mxCell id="MzxvAtUx7tTeIQeP956L-28" value="&lt;span style=&quot;font-size: 8px;&quot;&gt;查看&lt;/span&gt;" style="rounded=1;whiteSpace=wrap;html=1;fillColor=#808080;" vertex="1" parent="1">
          <mxGeometry x="130" y="290" width="40" height="20" as="geometry" />
        </mxCell>
        <mxCell id="MzxvAtUx7tTeIQeP956L-31" value="&lt;span style=&quot;font-size: 8px;&quot;&gt;匯出&lt;/span&gt;" style="rounded=1;whiteSpace=wrap;html=1;fillColor=#808080;" vertex="1" parent="1">
          <mxGeometry x="80" y="290" width="40" height="20" as="geometry" />
        </mxCell>
      </root>
    </mxGraphModel>
  </diagram>
  <diagram id="ET-pkPDAG7_EQCwxzvbj" name="第 4 页">
    <mxGraphModel dx="868" dy="478" grid="1" gridSize="10" guides="1" tooltips="1" connect="1" arrows="1" fold="1" page="1" pageScale="1" pageWidth="827" pageHeight="1169" math="0" shadow="0">
      <root>
        <mxCell id="0" />
        <mxCell id="1" parent="0" />
        <mxCell id="nC7MZ5-8QtUfKocfvigG-1" value="" style="rounded=0;whiteSpace=wrap;html=1;" vertex="1" parent="1">
          <mxGeometry x="280" y="100" width="646" height="400" as="geometry" />
        </mxCell>
        <mxCell id="nC7MZ5-8QtUfKocfvigG-2" value="&lt;font style=&quot;font-size: 20px;&quot;&gt;教室編號&lt;/font&gt;" style="text;strokeColor=none;align=center;fillColor=none;html=1;verticalAlign=middle;whiteSpace=wrap;rounded=0;" vertex="1" parent="1">
          <mxGeometry x="493" y="185" width="220" height="40" as="geometry" />
        </mxCell>
        <mxCell id="nC7MZ5-8QtUfKocfvigG-5" value="&lt;font style=&quot;font-size: 20px;&quot;&gt;選擇要匯出的教室&lt;/font&gt;" style="text;strokeColor=none;align=center;fillColor=none;html=1;verticalAlign=middle;whiteSpace=wrap;rounded=0;" vertex="1" parent="1">
          <mxGeometry x="493" y="235" width="220" height="40" as="geometry" />
        </mxCell>
        <mxCell id="nC7MZ5-8QtUfKocfvigG-6" value="&lt;font style=&quot;font-size: 20px;&quot;&gt;選擇要匯出的日期&lt;/font&gt;" style="rounded=0;whiteSpace=wrap;html=1;" vertex="1" parent="1">
          <mxGeometry x="508" y="285" width="190" height="40" as="geometry" />
        </mxCell>
        <mxCell id="nC7MZ5-8QtUfKocfvigG-7" value="&lt;span style=&quot;color: rgba(0, 0, 0, 0.87); font-family: Roboto, Helvetica, Arial, sans-serif; font-size: 16px; letter-spacing: 0.15008px; background-color: rgb(255, 255, 255);&quot;&gt;選擇的日期範圍&lt;/span&gt;" style="text;strokeColor=none;align=center;fillColor=none;html=1;verticalAlign=middle;whiteSpace=wrap;rounded=0;" vertex="1" parent="1">
          <mxGeometry x="493" y="335" width="220" height="40" as="geometry" />
        </mxCell>
        <mxCell id="nC7MZ5-8QtUfKocfvigG-8" value="匯出PDF" style="rounded=1;whiteSpace=wrap;html=1;fillColor=#808080;" vertex="1" parent="1">
          <mxGeometry x="571.5" y="385" width="63" height="30" as="geometry" />
        </mxCell>
        <mxCell id="nC7MZ5-8QtUfKocfvigG-9" value="" style="shape=mxgraph.sysml.x;" vertex="1" parent="1">
          <mxGeometry x="889" y="115" width="20" height="20" as="geometry" />
        </mxCell>
      </root>
    </mxGraphModel>
  </diagram>
  <diagram id="zQMTpKq9kxz6Sc-QJOb_" name="第 5 页">
    <mxGraphModel dx="932" dy="505" grid="1" gridSize="10" guides="1" tooltips="1" connect="1" arrows="1" fold="1" page="1" pageScale="1" pageWidth="827" pageHeight="1169" math="0" shadow="0">
      <root>
        <mxCell id="0" />
        <mxCell id="1" parent="0" />
        <mxCell id="nr4t4rD4jMs2nl9JwYOG-1" value="" style="rounded=0;whiteSpace=wrap;html=1;" vertex="1" parent="1">
          <mxGeometry x="220" y="110" width="646" height="400" as="geometry" />
        </mxCell>
        <mxCell id="nr4t4rD4jMs2nl9JwYOG-2" value="" style="shape=mxgraph.sysml.x;" vertex="1" parent="1">
          <mxGeometry x="851" y="115" width="10" height="10" as="geometry" />
        </mxCell>
        <mxCell id="nr4t4rD4jMs2nl9JwYOG-5" value="" style="rounded=0;whiteSpace=wrap;html=1;" vertex="1" parent="1">
          <mxGeometry x="238" y="125" width="610" height="375" as="geometry" />
        </mxCell>
        <mxCell id="nr4t4rD4jMs2nl9JwYOG-6" value="樓層" style="rounded=0;whiteSpace=wrap;html=1;" vertex="1" parent="1">
          <mxGeometry x="248" y="140" width="290" height="30" as="geometry" />
        </mxCell>
        <mxCell id="nr4t4rD4jMs2nl9JwYOG-10" value="教室代號" style="rounded=0;whiteSpace=wrap;html=1;" vertex="1" parent="1">
          <mxGeometry x="548" y="140" width="290" height="30" as="geometry" />
        </mxCell>
        <mxCell id="nr4t4rD4jMs2nl9JwYOG-11" value="&lt;font style=&quot;font-size: 15px;&quot;&gt;&amp;lt;&lt;/font&gt;&amp;nbsp; XXXX年XX月&amp;nbsp; &lt;font style=&quot;font-size: 15px;&quot;&gt;&amp;gt;&lt;/font&gt;" style="rounded=0;whiteSpace=wrap;html=1;" vertex="1" parent="1">
          <mxGeometry x="718" y="180" width="120" height="30" as="geometry" />
        </mxCell>
        <mxCell id="nr4t4rD4jMs2nl9JwYOG-12" value="日" style="rounded=0;whiteSpace=wrap;html=1;" vertex="1" parent="1">
          <mxGeometry x="778" y="220" width="40" height="30" as="geometry" />
        </mxCell>
        <mxCell id="nr4t4rD4jMs2nl9JwYOG-13" value="" style="html=1;verticalLabelPosition=bottom;align=center;labelBackgroundColor=#ffffff;verticalAlign=top;strokeWidth=2;strokeColor=#000000;shadow=0;dashed=0;shape=mxgraph.ios7.icons.looking_glass;" vertex="1" parent="1">
          <mxGeometry x="828" y="230" width="10" height="10" as="geometry" />
        </mxCell>
        <mxCell id="nr4t4rD4jMs2nl9JwYOG-14" value="月" style="rounded=0;whiteSpace=wrap;html=1;" vertex="1" parent="1">
          <mxGeometry x="728" y="220" width="40" height="30" as="geometry" />
        </mxCell>
        <mxCell id="nr4t4rD4jMs2nl9JwYOG-15" value="年" style="rounded=0;whiteSpace=wrap;html=1;" vertex="1" parent="1">
          <mxGeometry x="658" y="220" width="60" height="30" as="geometry" />
        </mxCell>
        <mxCell id="nr4t4rD4jMs2nl9JwYOG-16" value="" style="rounded=0;whiteSpace=wrap;html=1;" vertex="1" parent="1">
          <mxGeometry x="248" y="270" width="590" height="210" as="geometry" />
        </mxCell>
        <mxCell id="nr4t4rD4jMs2nl9JwYOG-19" value="" style="endArrow=none;html=1;rounded=0;exitX=0.002;exitY=0.202;exitDx=0;exitDy=0;exitPerimeter=0;entryX=0.995;entryY=0.202;entryDx=0;entryDy=0;entryPerimeter=0;" edge="1" parent="1" source="nr4t4rD4jMs2nl9JwYOG-16" target="nr4t4rD4jMs2nl9JwYOG-16">
          <mxGeometry width="50" height="50" relative="1" as="geometry">
            <mxPoint x="540" y="410" as="sourcePoint" />
            <mxPoint x="590" y="360" as="targetPoint" />
          </mxGeometry>
        </mxCell>
        <mxCell id="nr4t4rD4jMs2nl9JwYOG-20" value="星期五" style="text;strokeColor=none;align=center;fillColor=none;html=1;verticalAlign=middle;whiteSpace=wrap;rounded=0;" vertex="1" parent="1">
          <mxGeometry x="758" y="280" width="60" height="30" as="geometry" />
        </mxCell>
        <mxCell id="nr4t4rD4jMs2nl9JwYOG-21" value="星期四" style="text;strokeColor=none;align=center;fillColor=none;html=1;verticalAlign=middle;whiteSpace=wrap;rounded=0;" vertex="1" parent="1">
          <mxGeometry x="680" y="280" width="60" height="30" as="geometry" />
        </mxCell>
        <mxCell id="nr4t4rD4jMs2nl9JwYOG-22" value="星期三" style="text;strokeColor=none;align=center;fillColor=none;html=1;verticalAlign=middle;whiteSpace=wrap;rounded=0;" vertex="1" parent="1">
          <mxGeometry x="598" y="280" width="60" height="30" as="geometry" />
        </mxCell>
        <mxCell id="nr4t4rD4jMs2nl9JwYOG-23" value="星期二" style="text;strokeColor=none;align=center;fillColor=none;html=1;verticalAlign=middle;whiteSpace=wrap;rounded=0;" vertex="1" parent="1">
          <mxGeometry x="513" y="280" width="60" height="30" as="geometry" />
        </mxCell>
        <mxCell id="nr4t4rD4jMs2nl9JwYOG-24" value="星期一" style="text;strokeColor=none;align=center;fillColor=none;html=1;verticalAlign=middle;whiteSpace=wrap;rounded=0;" vertex="1" parent="1">
          <mxGeometry x="430" y="280" width="60" height="30" as="geometry" />
        </mxCell>
        <mxCell id="nr4t4rD4jMs2nl9JwYOG-26" value="&lt;font style=&quot;font-size: 30px;&quot;&gt;時&lt;/font&gt;&lt;div&gt;&lt;span style=&quot;font-size: 30px;&quot;&gt;段&lt;/span&gt;&lt;/div&gt;" style="text;strokeColor=none;align=center;fillColor=none;html=1;verticalAlign=middle;whiteSpace=wrap;rounded=0;" vertex="1" parent="1">
          <mxGeometry x="248" y="310" width="60" height="170" as="geometry" />
        </mxCell>
        <mxCell id="nr4t4rD4jMs2nl9JwYOG-27" value="" style="shape=mxgraph.sysml.x;" vertex="1" parent="1">
          <mxGeometry x="450" y="340" width="10" height="10" as="geometry" />
        </mxCell>
        <mxCell id="nr4t4rD4jMs2nl9JwYOG-28" value="" style="shape=mxgraph.sysml.x;" vertex="1" parent="1">
          <mxGeometry x="450" y="360" width="10" height="10" as="geometry" />
        </mxCell>
        <mxCell id="nr4t4rD4jMs2nl9JwYOG-29" value="" style="shape=mxgraph.sysml.x;" vertex="1" parent="1">
          <mxGeometry x="620" y="360" width="10" height="10" as="geometry" />
        </mxCell>
        <mxCell id="nr4t4rD4jMs2nl9JwYOG-30" value="" style="shape=mxgraph.sysml.x;" vertex="1" parent="1">
          <mxGeometry x="620" y="380" width="10" height="10" as="geometry" />
        </mxCell>
        <mxCell id="nr4t4rD4jMs2nl9JwYOG-31" value="" style="shape=mxgraph.sysml.x;" vertex="1" parent="1">
          <mxGeometry x="620" y="400" width="10" height="10" as="geometry" />
        </mxCell>
        <mxCell id="nr4t4rD4jMs2nl9JwYOG-32" value="" style="shape=mxgraph.sysml.x;" vertex="1" parent="1">
          <mxGeometry x="620" y="420" width="10" height="10" as="geometry" />
        </mxCell>
      </root>
    </mxGraphModel>
  </diagram>
  <diagram id="pZtuCTIe1XZJ_nbanjNF" name="第 6 页">
    <mxGraphModel dx="1551" dy="822" grid="1" gridSize="10" guides="1" tooltips="1" connect="1" arrows="1" fold="1" page="1" pageScale="1" pageWidth="827" pageHeight="1169" math="0" shadow="0">
      <root>
        <mxCell id="0" />
        <mxCell id="1" parent="0" />
        <mxCell id="om7pnWgnMwNQS-AXq-Im-1" value="" style="rounded=0;whiteSpace=wrap;html=1;" vertex="1" parent="1">
          <mxGeometry x="220" y="110" width="646" height="400" as="geometry" />
        </mxCell>
        <mxCell id="om7pnWgnMwNQS-AXq-Im-2" value="" style="shape=mxgraph.sysml.x;" vertex="1" parent="1">
          <mxGeometry x="829" y="126" width="21" height="21" as="geometry" />
        </mxCell>
        <mxCell id="om7pnWgnMwNQS-AXq-Im-3" value="&lt;font style=&quot;font-size: 25px;&quot;&gt;樓層&lt;/font&gt;" style="rounded=0;whiteSpace=wrap;html=1;" vertex="1" parent="1">
          <mxGeometry x="288" y="220" width="220" height="60" as="geometry" />
        </mxCell>
        <mxCell id="om7pnWgnMwNQS-AXq-Im-4" value="&lt;span style=&quot;font-size: 25px;&quot;&gt;選擇開始時間&lt;/span&gt;" style="rounded=0;whiteSpace=wrap;html=1;" vertex="1" parent="1">
          <mxGeometry x="288" y="340" width="220" height="60" as="geometry" />
        </mxCell>
        <mxCell id="om7pnWgnMwNQS-AXq-Im-5" value="&lt;span style=&quot;font-size: 25px;&quot;&gt;選擇結束時間&lt;/span&gt;" style="rounded=0;whiteSpace=wrap;html=1;" vertex="1" parent="1">
          <mxGeometry x="578" y="340" width="220" height="60" as="geometry" />
        </mxCell>
        <mxCell id="om7pnWgnMwNQS-AXq-Im-6" value="&lt;span style=&quot;font-size: 25px;&quot;&gt;教室代號&lt;/span&gt;" style="rounded=0;whiteSpace=wrap;html=1;" vertex="1" parent="1">
          <mxGeometry x="578" y="220" width="220" height="60" as="geometry" />
        </mxCell>
        <mxCell id="om7pnWgnMwNQS-AXq-Im-7" value="&lt;font style=&quot;font-size: 25px;&quot;&gt;提交&lt;/font&gt;" style="rounded=1;whiteSpace=wrap;html=1;fillColor=#808080;" vertex="1" parent="1">
          <mxGeometry x="483" y="420" width="120" height="60" as="geometry" />
        </mxCell>
      </root>
    </mxGraphModel>
  </diagram>
  <diagram id="pnUnFaWA4RpvQPl96U3_" name="第 7 页">
    <mxGraphModel dx="1551" dy="822" grid="1" gridSize="10" guides="1" tooltips="1" connect="1" arrows="1" fold="1" page="1" pageScale="1" pageWidth="827" pageHeight="1169" math="0" shadow="0">
      <root>
        <mxCell id="0" />
        <mxCell id="1" parent="0" />
        <mxCell id="CMjjZ5YGhx9Ng5Rtvhs7-1" value="" style="rounded=0;whiteSpace=wrap;html=1;" vertex="1" parent="1">
          <mxGeometry x="220" y="110" width="646" height="400" as="geometry" />
        </mxCell>
        <mxCell id="CMjjZ5YGhx9Ng5Rtvhs7-2" value="" style="shape=mxgraph.sysml.x;" vertex="1" parent="1">
          <mxGeometry x="829" y="126" width="21" height="21" as="geometry" />
        </mxCell>
        <mxCell id="CMjjZ5YGhx9Ng5Rtvhs7-3" value="&lt;font style=&quot;font-size: 25px;&quot;&gt;樓層&lt;/font&gt;" style="rounded=0;whiteSpace=wrap;html=1;" vertex="1" parent="1">
          <mxGeometry x="288" y="220" width="220" height="60" as="geometry" />
        </mxCell>
        <mxCell id="CMjjZ5YGhx9Ng5Rtvhs7-4" value="&lt;span style=&quot;font-size: 25px;&quot;&gt;月&lt;/span&gt;" style="rounded=0;whiteSpace=wrap;html=1;" vertex="1" parent="1">
          <mxGeometry x="288" y="340" width="152" height="60" as="geometry" />
        </mxCell>
        <mxCell id="CMjjZ5YGhx9Ng5Rtvhs7-6" value="&lt;span style=&quot;font-size: 25px;&quot;&gt;教室代號&lt;/span&gt;" style="rounded=0;whiteSpace=wrap;html=1;" vertex="1" parent="1">
          <mxGeometry x="578" y="220" width="220" height="60" as="geometry" />
        </mxCell>
        <mxCell id="CMjjZ5YGhx9Ng5Rtvhs7-7" value="&lt;font style=&quot;font-size: 25px;&quot;&gt;提交&lt;/font&gt;" style="rounded=1;whiteSpace=wrap;html=1;fillColor=#808080;" vertex="1" parent="1">
          <mxGeometry x="483" y="420" width="120" height="60" as="geometry" />
        </mxCell>
        <mxCell id="CMjjZ5YGhx9Ng5Rtvhs7-9" value="&lt;span style=&quot;font-size: 25px;&quot;&gt;時&lt;/span&gt;" style="rounded=0;whiteSpace=wrap;html=1;" vertex="1" parent="1">
          <mxGeometry x="646" y="340" width="152" height="60" as="geometry" />
        </mxCell>
        <mxCell id="CMjjZ5YGhx9Ng5Rtvhs7-10" value="&lt;span style=&quot;font-size: 25px;&quot;&gt;日&lt;/span&gt;" style="rounded=0;whiteSpace=wrap;html=1;" vertex="1" parent="1">
          <mxGeometry x="467" y="340" width="152" height="60" as="geometry" />
        </mxCell>
      </root>
    </mxGraphModel>
  </diagram>
  <diagram id="OuUHOI1jhtomVeFOd6LH" name="第 8 页">
    <mxGraphModel dx="1042" dy="573" grid="1" gridSize="10" guides="1" tooltips="1" connect="1" arrows="1" fold="1" page="1" pageScale="1" pageWidth="827" pageHeight="1169" math="0" shadow="0">
      <root>
        <mxCell id="0" />
        <mxCell id="1" parent="0" />
        <mxCell id="49A21cKtQv_MKHyPqMj1-1" value="" style="rounded=0;whiteSpace=wrap;html=1;" vertex="1" parent="1">
          <mxGeometry x="220" y="110" width="646" height="400" as="geometry" />
        </mxCell>
        <mxCell id="49A21cKtQv_MKHyPqMj1-2" value="" style="shape=mxgraph.sysml.x;" vertex="1" parent="1">
          <mxGeometry x="829" y="126" width="21" height="21" as="geometry" />
        </mxCell>
        <mxCell id="49A21cKtQv_MKHyPqMj1-3" value="&lt;font style=&quot;font-size: 25px;&quot;&gt;樓層&lt;/font&gt;" style="rounded=0;whiteSpace=wrap;html=1;" vertex="1" parent="1">
          <mxGeometry x="288" y="220" width="220" height="60" as="geometry" />
        </mxCell>
        <mxCell id="49A21cKtQv_MKHyPqMj1-6" value="&lt;span style=&quot;font-size: 25px;&quot;&gt;教室代號&lt;/span&gt;" style="rounded=0;whiteSpace=wrap;html=1;" vertex="1" parent="1">
          <mxGeometry x="578" y="220" width="220" height="60" as="geometry" />
        </mxCell>
        <mxCell id="49A21cKtQv_MKHyPqMj1-7" value="&lt;font style=&quot;font-size: 25px;&quot;&gt;更改&lt;/font&gt;" style="rounded=1;whiteSpace=wrap;html=1;fillColor=#808080;" vertex="1" parent="1">
          <mxGeometry x="483" y="430" width="120" height="60" as="geometry" />
        </mxCell>
        <mxCell id="49A21cKtQv_MKHyPqMj1-8" value="&lt;span style=&quot;font-size: 25px;&quot;&gt;選擇使用者&lt;/span&gt;" style="rounded=0;whiteSpace=wrap;html=1;" vertex="1" parent="1">
          <mxGeometry x="578" y="320" width="220" height="60" as="geometry" />
        </mxCell>
        <mxCell id="49A21cKtQv_MKHyPqMj1-9" value="&lt;span style=&quot;font-size: 25px;&quot;&gt;鑰匙狀態&lt;/span&gt;" style="rounded=0;whiteSpace=wrap;html=1;" vertex="1" parent="1">
          <mxGeometry x="288" y="320" width="220" height="60" as="geometry" />
        </mxCell>
        <mxCell id="49A21cKtQv_MKHyPqMj1-11" value="" style="whiteSpace=wrap;html=1;aspect=fixed;" vertex="1" parent="1">
          <mxGeometry x="475.75" y="400" width="20" height="20" as="geometry" />
        </mxCell>
        <mxCell id="49A21cKtQv_MKHyPqMj1-12" value="禁用鑰匙借用者" style="text;strokeColor=none;align=center;fillColor=none;html=1;verticalAlign=middle;whiteSpace=wrap;rounded=0;" vertex="1" parent="1">
          <mxGeometry x="490.25" y="395" width="120" height="30" as="geometry" />
        </mxCell>
      </root>
    </mxGraphModel>
  </diagram>
  <diagram id="vJJjXLjIIedYYJSWxosm" name="第 9 页">
    <mxGraphModel dx="1546" dy="395" grid="1" gridSize="10" guides="1" tooltips="1" connect="1" arrows="1" fold="1" page="1" pageScale="1" pageWidth="827" pageHeight="1169" math="0" shadow="0">
      <root>
        <mxCell id="0" />
        <mxCell id="1" parent="0" />
        <mxCell id="XeFK1Jfa4oH6c-_aOQsl-1" value="" style="rounded=0;whiteSpace=wrap;html=1;" vertex="1" parent="1">
          <mxGeometry x="-232" y="150" width="646" height="400" as="geometry" />
        </mxCell>
        <mxCell id="XeFK1Jfa4oH6c-_aOQsl-2" value="" style="endArrow=none;html=1;rounded=0;exitX=0;exitY=0.11;exitDx=0;exitDy=0;exitPerimeter=0;entryX=1;entryY=0.112;entryDx=0;entryDy=0;entryPerimeter=0;" edge="1" parent="1" source="XeFK1Jfa4oH6c-_aOQsl-1" target="XeFK1Jfa4oH6c-_aOQsl-1">
          <mxGeometry width="50" height="50" relative="1" as="geometry">
            <mxPoint x="110" y="250" as="sourcePoint" />
            <mxPoint x="160" y="200" as="targetPoint" />
          </mxGeometry>
        </mxCell>
        <mxCell id="XeFK1Jfa4oH6c-_aOQsl-3" value="查詢教室" style="text;strokeColor=none;align=center;fillColor=none;html=1;verticalAlign=middle;whiteSpace=wrap;rounded=0;" vertex="1" parent="1">
          <mxGeometry x="-220" y="160" width="60" height="30" as="geometry" />
        </mxCell>
        <mxCell id="XeFK1Jfa4oH6c-_aOQsl-4" value="申請管理" style="text;strokeColor=none;align=center;fillColor=none;html=1;verticalAlign=middle;whiteSpace=wrap;rounded=0;" vertex="1" parent="1">
          <mxGeometry x="-150" y="160" width="60" height="30" as="geometry" />
        </mxCell>
        <mxCell id="XeFK1Jfa4oH6c-_aOQsl-5" value="使用者狀態管理" style="text;strokeColor=none;align=center;fillColor=none;html=1;verticalAlign=middle;whiteSpace=wrap;rounded=0;" vertex="1" parent="1">
          <mxGeometry x="-80" y="160" width="90" height="30" as="geometry" />
        </mxCell>
        <mxCell id="XeFK1Jfa4oH6c-_aOQsl-6" value="教室地圖" style="text;strokeColor=none;align=center;fillColor=none;html=1;verticalAlign=middle;whiteSpace=wrap;rounded=0;" vertex="1" parent="1">
          <mxGeometry x="20" y="160" width="60" height="30" as="geometry" />
        </mxCell>
        <mxCell id="XeFK1Jfa4oH6c-_aOQsl-7" value="資訊查詢" style="text;strokeColor=none;align=center;fillColor=none;html=1;verticalAlign=middle;whiteSpace=wrap;rounded=0;" vertex="1" parent="1">
          <mxGeometry x="90" y="160" width="60" height="30" as="geometry" />
        </mxCell>
        <mxCell id="XeFK1Jfa4oH6c-_aOQsl-8" value="登出" style="rounded=1;whiteSpace=wrap;html=1;fillColor=#808080;" vertex="1" parent="1">
          <mxGeometry x="350" y="160" width="50" height="30" as="geometry" />
        </mxCell>
        <mxCell id="XeFK1Jfa4oH6c-_aOQsl-9" value="" style="rounded=0;whiteSpace=wrap;html=1;" vertex="1" parent="1">
          <mxGeometry x="-219" y="210" width="620" height="40" as="geometry" />
        </mxCell>
        <mxCell id="XeFK1Jfa4oH6c-_aOQsl-10" value="" style="rounded=0;whiteSpace=wrap;html=1;" vertex="1" parent="1">
          <mxGeometry x="-219" y="270" width="620" height="260" as="geometry" />
        </mxCell>
        <mxCell id="XeFK1Jfa4oH6c-_aOQsl-11" value="" style="rounded=1;whiteSpace=wrap;html=1;" vertex="1" parent="1">
          <mxGeometry x="-210" y="280" width="600" height="40" as="geometry" />
        </mxCell>
        <mxCell id="XeFK1Jfa4oH6c-_aOQsl-12" value="樓層" style="rounded=0;whiteSpace=wrap;html=1;" vertex="1" parent="1">
          <mxGeometry x="-210" y="215" width="70" height="30" as="geometry" />
        </mxCell>
        <mxCell id="XeFK1Jfa4oH6c-_aOQsl-13" value="教室代號" style="rounded=0;whiteSpace=wrap;html=1;" vertex="1" parent="1">
          <mxGeometry x="-120" y="215" width="70" height="30" as="geometry" />
        </mxCell>
        <mxCell id="XeFK1Jfa4oH6c-_aOQsl-15" value="&lt;font style=&quot;font-size: 8px;&quot;&gt;教室編號&lt;/font&gt;" style="text;strokeColor=none;align=center;fillColor=none;html=1;verticalAlign=middle;whiteSpace=wrap;rounded=0;" vertex="1" parent="1">
          <mxGeometry x="-210" y="285" width="45" height="30" as="geometry" />
        </mxCell>
        <mxCell id="XeFK1Jfa4oH6c-_aOQsl-16" value="&lt;font style=&quot;font-size: 8px;&quot;&gt;樓層&lt;/font&gt;" style="text;strokeColor=none;align=center;fillColor=none;html=1;verticalAlign=middle;whiteSpace=wrap;rounded=0;" vertex="1" parent="1">
          <mxGeometry x="-165" y="285" width="45" height="30" as="geometry" />
        </mxCell>
        <mxCell id="XeFK1Jfa4oH6c-_aOQsl-18" value="&lt;font style=&quot;font-size: 8px;&quot;&gt;借用時間&lt;/font&gt;" style="text;strokeColor=none;align=center;fillColor=none;html=1;verticalAlign=middle;whiteSpace=wrap;rounded=0;" vertex="1" parent="1">
          <mxGeometry x="-70" y="285" width="45" height="30" as="geometry" />
        </mxCell>
        <mxCell id="XeFK1Jfa4oH6c-_aOQsl-19" value="&lt;font style=&quot;font-size: 8px;&quot;&gt;借用人&lt;/font&gt;" style="text;strokeColor=none;align=center;fillColor=none;html=1;verticalAlign=middle;whiteSpace=wrap;rounded=0;" vertex="1" parent="1">
          <mxGeometry x="-120" y="285" width="45" height="30" as="geometry" />
        </mxCell>
        <mxCell id="XeFK1Jfa4oH6c-_aOQsl-20" value="&lt;font style=&quot;font-size: 8px;&quot;&gt;檢視歷史紀錄&lt;/font&gt;" style="rounded=1;whiteSpace=wrap;html=1;fillColor=#808080;" vertex="1" parent="1">
          <mxGeometry x="230" y="290" width="50" height="20" as="geometry" />
        </mxCell>
        <mxCell id="XeFK1Jfa4oH6c-_aOQsl-21" value="&lt;span style=&quot;font-size: 8px;&quot;&gt;同意&lt;/span&gt;" style="rounded=1;whiteSpace=wrap;html=1;fillColor=#808080;" vertex="1" parent="1">
          <mxGeometry x="290" y="290" width="40" height="20" as="geometry" />
        </mxCell>
        <mxCell id="XeFK1Jfa4oH6c-_aOQsl-22" value="&lt;span style=&quot;font-size: 8px;&quot;&gt;不同意&lt;/span&gt;" style="rounded=1;whiteSpace=wrap;html=1;fillColor=#808080;" vertex="1" parent="1">
          <mxGeometry x="340" y="290" width="40" height="20" as="geometry" />
        </mxCell>
      </root>
    </mxGraphModel>
  </diagram>
  <diagram id="wgCMIY50JNvQ7I3-gpBv" name="第 10 页">
    <mxGraphModel dx="1226" dy="674" grid="1" gridSize="10" guides="1" tooltips="1" connect="1" arrows="1" fold="1" page="1" pageScale="1" pageWidth="827" pageHeight="1169" math="0" shadow="0">
      <root>
        <mxCell id="0" />
        <mxCell id="1" parent="0" />
        <mxCell id="0sxmJbR750bXzA-t7lK6-1" value="" style="rounded=0;whiteSpace=wrap;html=1;" vertex="1" parent="1">
          <mxGeometry x="220" y="110" width="646" height="400" as="geometry" />
        </mxCell>
        <mxCell id="0sxmJbR750bXzA-t7lK6-2" value="" style="shape=mxgraph.sysml.x;" vertex="1" parent="1">
          <mxGeometry x="829" y="126" width="21" height="21" as="geometry" />
        </mxCell>
        <mxCell id="MdmdGu96SsryZ8iFMysP-1" value="" style="endArrow=none;html=1;rounded=0;exitX=0;exitY=0.2;exitDx=0;exitDy=0;exitPerimeter=0;entryX=0.999;entryY=0.198;entryDx=0;entryDy=0;entryPerimeter=0;" edge="1" parent="1" source="0sxmJbR750bXzA-t7lK6-1" target="0sxmJbR750bXzA-t7lK6-1">
          <mxGeometry width="50" height="50" relative="1" as="geometry">
            <mxPoint x="390" y="450" as="sourcePoint" />
            <mxPoint x="440" y="400" as="targetPoint" />
          </mxGeometry>
        </mxCell>
        <mxCell id="MdmdGu96SsryZ8iFMysP-2" value="&lt;font style=&quot;font-size: 20px;&quot;&gt;歷史紀錄&lt;/font&gt;" style="text;strokeColor=none;align=center;fillColor=none;html=1;verticalAlign=middle;whiteSpace=wrap;rounded=0;" vertex="1" parent="1">
          <mxGeometry x="220" y="140" width="130" height="30" as="geometry" />
        </mxCell>
        <mxCell id="XhAc8znpxFud7Y9E8YYX-1" value="" style="rounded=1;whiteSpace=wrap;html=1;" vertex="1" parent="1">
          <mxGeometry x="243" y="210" width="600" height="40" as="geometry" />
        </mxCell>
        <mxCell id="XhAc8znpxFud7Y9E8YYX-2" value="&lt;font style=&quot;font-size: 8px;&quot;&gt;借用者&lt;/font&gt;" style="text;strokeColor=none;align=center;fillColor=none;html=1;verticalAlign=middle;whiteSpace=wrap;rounded=0;" vertex="1" parent="1">
          <mxGeometry x="243" y="215" width="45" height="30" as="geometry" />
        </mxCell>
        <mxCell id="XhAc8znpxFud7Y9E8YYX-3" value="&lt;font style=&quot;font-size: 8px;&quot;&gt;教室代號&lt;/font&gt;" style="text;strokeColor=none;align=center;fillColor=none;html=1;verticalAlign=middle;whiteSpace=wrap;rounded=0;" vertex="1" parent="1">
          <mxGeometry x="288" y="215" width="45" height="30" as="geometry" />
        </mxCell>
        <mxCell id="XhAc8znpxFud7Y9E8YYX-4" value="&lt;font style=&quot;font-size: 8px;&quot;&gt;出租結果&lt;/font&gt;" style="text;strokeColor=none;align=center;fillColor=none;html=1;verticalAlign=middle;whiteSpace=wrap;rounded=0;" vertex="1" parent="1">
          <mxGeometry x="383" y="215" width="45" height="30" as="geometry" />
        </mxCell>
        <mxCell id="XhAc8znpxFud7Y9E8YYX-5" value="&lt;font style=&quot;font-size: 8px;&quot;&gt;出租日期&lt;/font&gt;" style="text;strokeColor=none;align=center;fillColor=none;html=1;verticalAlign=middle;whiteSpace=wrap;rounded=0;" vertex="1" parent="1">
          <mxGeometry x="333" y="215" width="45" height="30" as="geometry" />
        </mxCell>
      </root>
    </mxGraphModel>
  </diagram>
  <diagram id="OBTw9-Oh8aehKgKMoq6y" name="第 11 页">
    <mxGraphModel dx="1869" dy="573" grid="1" gridSize="10" guides="1" tooltips="1" connect="1" arrows="1" fold="1" page="1" pageScale="1" pageWidth="827" pageHeight="1169" math="0" shadow="0">
      <root>
        <mxCell id="0" />
        <mxCell id="1" parent="0" />
        <mxCell id="JTojA9RAi3_d1Qf_eXUi-1" value="" style="rounded=0;whiteSpace=wrap;html=1;" vertex="1" parent="1">
          <mxGeometry x="-40" y="100" width="646" height="400" as="geometry" />
        </mxCell>
        <mxCell id="JTojA9RAi3_d1Qf_eXUi-2" value="" style="endArrow=none;html=1;rounded=0;exitX=0;exitY=0.11;exitDx=0;exitDy=0;exitPerimeter=0;entryX=1;entryY=0.112;entryDx=0;entryDy=0;entryPerimeter=0;" edge="1" parent="1" source="JTojA9RAi3_d1Qf_eXUi-1" target="JTojA9RAi3_d1Qf_eXUi-1">
          <mxGeometry width="50" height="50" relative="1" as="geometry">
            <mxPoint x="302" y="200" as="sourcePoint" />
            <mxPoint x="352" y="150" as="targetPoint" />
          </mxGeometry>
        </mxCell>
        <mxCell id="JTojA9RAi3_d1Qf_eXUi-3" value="查詢教室" style="text;strokeColor=none;align=center;fillColor=none;html=1;verticalAlign=middle;whiteSpace=wrap;rounded=0;" vertex="1" parent="1">
          <mxGeometry x="-28" y="110" width="60" height="30" as="geometry" />
        </mxCell>
        <mxCell id="JTojA9RAi3_d1Qf_eXUi-4" value="申請管理" style="text;strokeColor=none;align=center;fillColor=none;html=1;verticalAlign=middle;whiteSpace=wrap;rounded=0;" vertex="1" parent="1">
          <mxGeometry x="42" y="110" width="60" height="30" as="geometry" />
        </mxCell>
        <mxCell id="JTojA9RAi3_d1Qf_eXUi-5" value="使用者狀態管理" style="text;strokeColor=none;align=center;fillColor=none;html=1;verticalAlign=middle;whiteSpace=wrap;rounded=0;" vertex="1" parent="1">
          <mxGeometry x="112" y="110" width="90" height="30" as="geometry" />
        </mxCell>
        <mxCell id="JTojA9RAi3_d1Qf_eXUi-6" value="教室地圖" style="text;strokeColor=none;align=center;fillColor=none;html=1;verticalAlign=middle;whiteSpace=wrap;rounded=0;" vertex="1" parent="1">
          <mxGeometry x="212" y="110" width="60" height="30" as="geometry" />
        </mxCell>
        <mxCell id="JTojA9RAi3_d1Qf_eXUi-7" value="資訊查詢" style="text;strokeColor=none;align=center;fillColor=none;html=1;verticalAlign=middle;whiteSpace=wrap;rounded=0;" vertex="1" parent="1">
          <mxGeometry x="282" y="110" width="60" height="30" as="geometry" />
        </mxCell>
        <mxCell id="JTojA9RAi3_d1Qf_eXUi-8" value="登出" style="rounded=1;whiteSpace=wrap;html=1;fillColor=#808080;" vertex="1" parent="1">
          <mxGeometry x="542" y="110" width="50" height="30" as="geometry" />
        </mxCell>
        <mxCell id="JTojA9RAi3_d1Qf_eXUi-9" value="" style="rounded=0;whiteSpace=wrap;html=1;" vertex="1" parent="1">
          <mxGeometry x="-27" y="160" width="620" height="40" as="geometry" />
        </mxCell>
        <mxCell id="JTojA9RAi3_d1Qf_eXUi-10" value="" style="rounded=0;whiteSpace=wrap;html=1;" vertex="1" parent="1">
          <mxGeometry x="-27" y="220" width="620" height="260" as="geometry" />
        </mxCell>
        <mxCell id="JTojA9RAi3_d1Qf_eXUi-11" value="" style="rounded=1;whiteSpace=wrap;html=1;" vertex="1" parent="1">
          <mxGeometry x="-18" y="230" width="600" height="40" as="geometry" />
        </mxCell>
        <mxCell id="JTojA9RAi3_d1Qf_eXUi-12" value="請選擇使用者" style="rounded=0;whiteSpace=wrap;html=1;" vertex="1" parent="1">
          <mxGeometry x="-18" y="165" width="168" height="30" as="geometry" />
        </mxCell>
        <mxCell id="JTojA9RAi3_d1Qf_eXUi-14" value="&lt;font style=&quot;font-size: 8px;&quot;&gt;使用者&lt;/font&gt;" style="text;strokeColor=none;align=center;fillColor=none;html=1;verticalAlign=middle;whiteSpace=wrap;rounded=0;" vertex="1" parent="1">
          <mxGeometry x="-18" y="235" width="45" height="30" as="geometry" />
        </mxCell>
        <mxCell id="JTojA9RAi3_d1Qf_eXUi-15" value="&lt;font style=&quot;font-size: 8px;&quot;&gt;身分&lt;/font&gt;" style="text;strokeColor=none;align=center;fillColor=none;html=1;verticalAlign=middle;whiteSpace=wrap;rounded=0;" vertex="1" parent="1">
          <mxGeometry x="27" y="235" width="45" height="30" as="geometry" />
        </mxCell>
        <mxCell id="JTojA9RAi3_d1Qf_eXUi-16" value="&lt;font style=&quot;font-size: 8px;&quot;&gt;解禁時間&lt;/font&gt;" style="text;strokeColor=none;align=center;fillColor=none;html=1;verticalAlign=middle;whiteSpace=wrap;rounded=0;" vertex="1" parent="1">
          <mxGeometry x="122" y="235" width="45" height="30" as="geometry" />
        </mxCell>
        <mxCell id="JTojA9RAi3_d1Qf_eXUi-17" value="&lt;font style=&quot;font-size: 8px;&quot;&gt;狀態&lt;/font&gt;" style="text;strokeColor=none;align=center;fillColor=none;html=1;verticalAlign=middle;whiteSpace=wrap;rounded=0;" vertex="1" parent="1">
          <mxGeometry x="72" y="235" width="45" height="30" as="geometry" />
        </mxCell>
        <mxCell id="JTojA9RAi3_d1Qf_eXUi-18" value="&lt;font style=&quot;font-size: 8px;&quot;&gt;進用使用者&lt;/font&gt;" style="rounded=1;whiteSpace=wrap;html=1;fillColor=#808080;" vertex="1" parent="1">
          <mxGeometry x="520" y="240" width="50" height="20" as="geometry" />
        </mxCell>
        <mxCell id="JTojA9RAi3_d1Qf_eXUi-19" value="&lt;span style=&quot;font-size: 8px;&quot;&gt;解禁&lt;/span&gt;" style="rounded=1;whiteSpace=wrap;html=1;fillColor=#808080;" vertex="1" parent="1">
          <mxGeometry x="470" y="240" width="40" height="20" as="geometry" />
        </mxCell>
      </root>
    </mxGraphModel>
  </diagram>
  <diagram id="9XTtPWY9EbOsik3DZGik" name="第 12 页">
    <mxGraphModel dx="1042" dy="573" grid="1" gridSize="10" guides="1" tooltips="1" connect="1" arrows="1" fold="1" page="1" pageScale="1" pageWidth="827" pageHeight="1169" math="0" shadow="0">
      <root>
        <mxCell id="0" />
        <mxCell id="1" parent="0" />
        <mxCell id="s4thStHGoP-mLQ299-Zn-1" value="" style="rounded=0;whiteSpace=wrap;html=1;" vertex="1" parent="1">
          <mxGeometry x="220" y="110" width="646" height="400" as="geometry" />
        </mxCell>
        <mxCell id="s4thStHGoP-mLQ299-Zn-2" value="" style="shape=mxgraph.sysml.x;" vertex="1" parent="1">
          <mxGeometry x="829" y="126" width="21" height="21" as="geometry" />
        </mxCell>
        <mxCell id="s4thStHGoP-mLQ299-Zn-3" value="&lt;font style=&quot;font-size: 25px;&quot;&gt;使用者&lt;/font&gt;" style="rounded=0;whiteSpace=wrap;html=1;" vertex="1" parent="1">
          <mxGeometry x="288" y="220" width="512" height="60" as="geometry" />
        </mxCell>
        <mxCell id="s4thStHGoP-mLQ299-Zn-4" value="&lt;span style=&quot;font-size: 25px;&quot;&gt;月&lt;/span&gt;" style="rounded=0;whiteSpace=wrap;html=1;" vertex="1" parent="1">
          <mxGeometry x="288" y="340" width="152" height="60" as="geometry" />
        </mxCell>
        <mxCell id="s4thStHGoP-mLQ299-Zn-6" value="&lt;font style=&quot;font-size: 25px;&quot;&gt;提交&lt;/font&gt;" style="rounded=1;whiteSpace=wrap;html=1;fillColor=#808080;" vertex="1" parent="1">
          <mxGeometry x="483" y="420" width="120" height="60" as="geometry" />
        </mxCell>
        <mxCell id="s4thStHGoP-mLQ299-Zn-7" value="&lt;span style=&quot;font-size: 25px;&quot;&gt;時&lt;/span&gt;" style="rounded=0;whiteSpace=wrap;html=1;" vertex="1" parent="1">
          <mxGeometry x="646" y="340" width="152" height="60" as="geometry" />
        </mxCell>
        <mxCell id="s4thStHGoP-mLQ299-Zn-8" value="&lt;span style=&quot;font-size: 25px;&quot;&gt;日&lt;/span&gt;" style="rounded=0;whiteSpace=wrap;html=1;" vertex="1" parent="1">
          <mxGeometry x="467" y="340" width="152" height="60" as="geometry" />
        </mxCell>
      </root>
    </mxGraphModel>
  </diagram>
  <diagram id="UvqshSw0ireExyF9SwJP" name="第 13 页">
    <mxGraphModel dx="1869" dy="573" grid="1" gridSize="10" guides="1" tooltips="1" connect="1" arrows="1" fold="1" page="1" pageScale="1" pageWidth="827" pageHeight="1169" math="0" shadow="0">
      <root>
        <mxCell id="0" />
        <mxCell id="1" parent="0" />
        <mxCell id="Zkpx6QZvz0dGlP_ZDs8Q-1" value="" style="rounded=0;whiteSpace=wrap;html=1;" vertex="1" parent="1">
          <mxGeometry x="-40" y="100" width="646" height="400" as="geometry" />
        </mxCell>
        <mxCell id="Zkpx6QZvz0dGlP_ZDs8Q-2" value="" style="endArrow=none;html=1;rounded=0;exitX=0;exitY=0.11;exitDx=0;exitDy=0;exitPerimeter=0;entryX=1;entryY=0.112;entryDx=0;entryDy=0;entryPerimeter=0;" edge="1" parent="1" source="Zkpx6QZvz0dGlP_ZDs8Q-1" target="Zkpx6QZvz0dGlP_ZDs8Q-1">
          <mxGeometry width="50" height="50" relative="1" as="geometry">
            <mxPoint x="302" y="200" as="sourcePoint" />
            <mxPoint x="352" y="150" as="targetPoint" />
          </mxGeometry>
        </mxCell>
        <mxCell id="Zkpx6QZvz0dGlP_ZDs8Q-3" value="查詢教室" style="text;strokeColor=none;align=center;fillColor=none;html=1;verticalAlign=middle;whiteSpace=wrap;rounded=0;" vertex="1" parent="1">
          <mxGeometry x="-28" y="110" width="60" height="30" as="geometry" />
        </mxCell>
        <mxCell id="Zkpx6QZvz0dGlP_ZDs8Q-4" value="申請管理" style="text;strokeColor=none;align=center;fillColor=none;html=1;verticalAlign=middle;whiteSpace=wrap;rounded=0;" vertex="1" parent="1">
          <mxGeometry x="42" y="110" width="60" height="30" as="geometry" />
        </mxCell>
        <mxCell id="Zkpx6QZvz0dGlP_ZDs8Q-5" value="使用者狀態管理" style="text;strokeColor=none;align=center;fillColor=none;html=1;verticalAlign=middle;whiteSpace=wrap;rounded=0;" vertex="1" parent="1">
          <mxGeometry x="112" y="110" width="90" height="30" as="geometry" />
        </mxCell>
        <mxCell id="Zkpx6QZvz0dGlP_ZDs8Q-6" value="教室地圖" style="text;strokeColor=none;align=center;fillColor=none;html=1;verticalAlign=middle;whiteSpace=wrap;rounded=0;" vertex="1" parent="1">
          <mxGeometry x="212" y="110" width="60" height="30" as="geometry" />
        </mxCell>
        <mxCell id="Zkpx6QZvz0dGlP_ZDs8Q-7" value="資訊查詢" style="text;strokeColor=none;align=center;fillColor=none;html=1;verticalAlign=middle;whiteSpace=wrap;rounded=0;" vertex="1" parent="1">
          <mxGeometry x="282" y="110" width="60" height="30" as="geometry" />
        </mxCell>
        <mxCell id="Zkpx6QZvz0dGlP_ZDs8Q-8" value="登出" style="rounded=1;whiteSpace=wrap;html=1;fillColor=#808080;" vertex="1" parent="1">
          <mxGeometry x="542" y="110" width="50" height="30" as="geometry" />
        </mxCell>
        <mxCell id="Zkpx6QZvz0dGlP_ZDs8Q-10" value="" style="rounded=0;whiteSpace=wrap;html=1;" vertex="1" parent="1">
          <mxGeometry x="-27" y="160" width="620" height="320" as="geometry" />
        </mxCell>
        <mxCell id="Zkpx6QZvz0dGlP_ZDs8Q-18" value="&lt;span style=&quot;font-size: 8px;&quot;&gt;解禁&lt;/span&gt;" style="rounded=1;whiteSpace=wrap;html=1;fillColor=#808080;" vertex="1" parent="1">
          <mxGeometry x="23" y="220" width="80" height="20" as="geometry" />
        </mxCell>
        <mxCell id="Zkpx6QZvz0dGlP_ZDs8Q-19" value="選擇樓層:" style="text;strokeColor=none;align=center;fillColor=none;html=1;verticalAlign=middle;whiteSpace=wrap;rounded=0;" vertex="1" parent="1">
          <mxGeometry x="-10" y="180" width="60" height="30" as="geometry" />
        </mxCell>
        <mxCell id="Zkpx6QZvz0dGlP_ZDs8Q-22" value="&lt;span style=&quot;font-size: 8px;&quot;&gt;解禁&lt;/span&gt;" style="rounded=1;whiteSpace=wrap;html=1;fillColor=#808080;" vertex="1" parent="1">
          <mxGeometry x="135" y="220" width="80" height="20" as="geometry" />
        </mxCell>
        <mxCell id="Zkpx6QZvz0dGlP_ZDs8Q-23" value="&lt;span style=&quot;font-size: 8px;&quot;&gt;解禁&lt;/span&gt;" style="rounded=1;whiteSpace=wrap;html=1;fillColor=#808080;" vertex="1" parent="1">
          <mxGeometry x="245" y="220" width="80" height="20" as="geometry" />
        </mxCell>
        <mxCell id="Zkpx6QZvz0dGlP_ZDs8Q-24" value="&lt;span style=&quot;font-size: 8px;&quot;&gt;解禁&lt;/span&gt;" style="rounded=1;whiteSpace=wrap;html=1;fillColor=#808080;" vertex="1" parent="1">
          <mxGeometry x="353" y="220" width="80" height="20" as="geometry" />
        </mxCell>
        <mxCell id="Zkpx6QZvz0dGlP_ZDs8Q-25" value="&lt;span style=&quot;font-size: 8px;&quot;&gt;解禁&lt;/span&gt;" style="rounded=1;whiteSpace=wrap;html=1;fillColor=#808080;" vertex="1" parent="1">
          <mxGeometry x="463" y="220" width="80" height="20" as="geometry" />
        </mxCell>
        <mxCell id="Zkpx6QZvz0dGlP_ZDs8Q-28" value="&lt;font style=&quot;font-size: 50px;&quot;&gt;平面圖&lt;/font&gt;" style="rounded=0;whiteSpace=wrap;html=1;" vertex="1" parent="1">
          <mxGeometry x="23" y="260" width="517" height="210" as="geometry" />
        </mxCell>
      </root>
    </mxGraphModel>
  </diagram>
  <diagram id="MMDoLU2nc2MTjg_RypxR" name="第 14 页">
    <mxGraphModel dx="1869" dy="573" grid="1" gridSize="10" guides="1" tooltips="1" connect="1" arrows="1" fold="1" page="1" pageScale="1" pageWidth="827" pageHeight="1169" math="0" shadow="0">
      <root>
        <mxCell id="0" />
        <mxCell id="1" parent="0" />
        <mxCell id="eKxlT5bRmbfGm2-FsgIJ-1" value="" style="rounded=0;whiteSpace=wrap;html=1;" vertex="1" parent="1">
          <mxGeometry x="-40" y="100" width="646" height="400" as="geometry" />
        </mxCell>
        <mxCell id="eKxlT5bRmbfGm2-FsgIJ-2" value="" style="endArrow=none;html=1;rounded=0;exitX=0;exitY=0.11;exitDx=0;exitDy=0;exitPerimeter=0;entryX=1;entryY=0.112;entryDx=0;entryDy=0;entryPerimeter=0;" edge="1" parent="1" source="eKxlT5bRmbfGm2-FsgIJ-1" target="eKxlT5bRmbfGm2-FsgIJ-1">
          <mxGeometry width="50" height="50" relative="1" as="geometry">
            <mxPoint x="302" y="200" as="sourcePoint" />
            <mxPoint x="352" y="150" as="targetPoint" />
          </mxGeometry>
        </mxCell>
        <mxCell id="eKxlT5bRmbfGm2-FsgIJ-3" value="查詢教室" style="text;strokeColor=none;align=center;fillColor=none;html=1;verticalAlign=middle;whiteSpace=wrap;rounded=0;" vertex="1" parent="1">
          <mxGeometry x="-28" y="110" width="60" height="30" as="geometry" />
        </mxCell>
        <mxCell id="eKxlT5bRmbfGm2-FsgIJ-4" value="申請管理" style="text;strokeColor=none;align=center;fillColor=none;html=1;verticalAlign=middle;whiteSpace=wrap;rounded=0;" vertex="1" parent="1">
          <mxGeometry x="42" y="110" width="60" height="30" as="geometry" />
        </mxCell>
        <mxCell id="eKxlT5bRmbfGm2-FsgIJ-5" value="使用者狀態管理" style="text;strokeColor=none;align=center;fillColor=none;html=1;verticalAlign=middle;whiteSpace=wrap;rounded=0;" vertex="1" parent="1">
          <mxGeometry x="112" y="110" width="90" height="30" as="geometry" />
        </mxCell>
        <mxCell id="eKxlT5bRmbfGm2-FsgIJ-6" value="教室地圖" style="text;strokeColor=none;align=center;fillColor=none;html=1;verticalAlign=middle;whiteSpace=wrap;rounded=0;" vertex="1" parent="1">
          <mxGeometry x="212" y="110" width="60" height="30" as="geometry" />
        </mxCell>
        <mxCell id="eKxlT5bRmbfGm2-FsgIJ-7" value="資訊查詢" style="text;strokeColor=none;align=center;fillColor=none;html=1;verticalAlign=middle;whiteSpace=wrap;rounded=0;" vertex="1" parent="1">
          <mxGeometry x="282" y="110" width="60" height="30" as="geometry" />
        </mxCell>
        <mxCell id="eKxlT5bRmbfGm2-FsgIJ-8" value="登出" style="rounded=1;whiteSpace=wrap;html=1;fillColor=#808080;" vertex="1" parent="1">
          <mxGeometry x="542" y="110" width="50" height="30" as="geometry" />
        </mxCell>
        <mxCell id="eKxlT5bRmbfGm2-FsgIJ-9" value="" style="rounded=0;whiteSpace=wrap;html=1;" vertex="1" parent="1">
          <mxGeometry x="-27" y="160" width="620" height="40" as="geometry" />
        </mxCell>
        <mxCell id="eKxlT5bRmbfGm2-FsgIJ-10" value="" style="rounded=0;whiteSpace=wrap;html=1;" vertex="1" parent="1">
          <mxGeometry x="-27" y="220" width="620" height="260" as="geometry" />
        </mxCell>
        <mxCell id="eKxlT5bRmbfGm2-FsgIJ-11" value="" style="rounded=1;whiteSpace=wrap;html=1;" vertex="1" parent="1">
          <mxGeometry x="-18" y="230" width="600" height="40" as="geometry" />
        </mxCell>
        <mxCell id="eKxlT5bRmbfGm2-FsgIJ-12" value="請選擇想調閱的使用者" style="rounded=0;whiteSpace=wrap;html=1;" vertex="1" parent="1">
          <mxGeometry x="-18" y="165" width="168" height="30" as="geometry" />
        </mxCell>
        <mxCell id="eKxlT5bRmbfGm2-FsgIJ-13" value="&lt;font style=&quot;font-size: 8px;&quot;&gt;教室代號&lt;/font&gt;" style="text;strokeColor=none;align=center;fillColor=none;html=1;verticalAlign=middle;whiteSpace=wrap;rounded=0;" vertex="1" parent="1">
          <mxGeometry x="-18" y="235" width="45" height="30" as="geometry" />
        </mxCell>
        <mxCell id="eKxlT5bRmbfGm2-FsgIJ-14" value="&lt;font style=&quot;font-size: 8px;&quot;&gt;樓層&lt;/font&gt;" style="text;strokeColor=none;align=center;fillColor=none;html=1;verticalAlign=middle;whiteSpace=wrap;rounded=0;" vertex="1" parent="1">
          <mxGeometry x="27" y="235" width="45" height="30" as="geometry" />
        </mxCell>
        <mxCell id="eKxlT5bRmbfGm2-FsgIJ-15" value="&lt;font style=&quot;font-size: 8px;&quot;&gt;出借時間&lt;/font&gt;" style="text;strokeColor=none;align=center;fillColor=none;html=1;verticalAlign=middle;whiteSpace=wrap;rounded=0;" vertex="1" parent="1">
          <mxGeometry x="122" y="235" width="45" height="30" as="geometry" />
        </mxCell>
        <mxCell id="eKxlT5bRmbfGm2-FsgIJ-16" value="&lt;font style=&quot;font-size: 8px;&quot;&gt;借用人&lt;/font&gt;" style="text;strokeColor=none;align=center;fillColor=none;html=1;verticalAlign=middle;whiteSpace=wrap;rounded=0;" vertex="1" parent="1">
          <mxGeometry x="72" y="235" width="45" height="30" as="geometry" />
        </mxCell>
        <mxCell id="ntvoC_mzo1pTf25Ki_W9-1" value="&lt;font style=&quot;font-size: 8px;&quot;&gt;結束時間&lt;/font&gt;" style="text;strokeColor=none;align=center;fillColor=none;html=1;verticalAlign=middle;whiteSpace=wrap;rounded=0;" vertex="1" parent="1">
          <mxGeometry x="170" y="235" width="45" height="30" as="geometry" />
        </mxCell>
        <mxCell id="ntvoC_mzo1pTf25Ki_W9-2" value="&lt;font style=&quot;font-size: 8px;&quot;&gt;出租結果&lt;/font&gt;" style="text;strokeColor=none;align=center;fillColor=none;html=1;verticalAlign=middle;whiteSpace=wrap;rounded=0;" vertex="1" parent="1">
          <mxGeometry x="219.5" y="235" width="45" height="30" as="geometry" />
        </mxCell>
      </root>
    </mxGraphModel>
  </diagram>
  <diagram id="gsqsrpt9yuHvu_IM8f18" name="第 15 页">
    <mxGraphModel dx="1869" dy="573" grid="1" gridSize="10" guides="1" tooltips="1" connect="1" arrows="1" fold="1" page="1" pageScale="1" pageWidth="827" pageHeight="1169" math="0" shadow="0">
      <root>
        <mxCell id="0" />
        <mxCell id="1" parent="0" />
        <mxCell id="vp1pobiUoCR_NvqggfAx-1" value="" style="rounded=0;whiteSpace=wrap;html=1;" vertex="1" parent="1">
          <mxGeometry x="-40" y="100" width="646" height="400" as="geometry" />
        </mxCell>
        <mxCell id="vp1pobiUoCR_NvqggfAx-2" value="" style="endArrow=none;html=1;rounded=0;exitX=0;exitY=0.11;exitDx=0;exitDy=0;exitPerimeter=0;entryX=1;entryY=0.112;entryDx=0;entryDy=0;entryPerimeter=0;" edge="1" parent="1" source="vp1pobiUoCR_NvqggfAx-1" target="vp1pobiUoCR_NvqggfAx-1">
          <mxGeometry width="50" height="50" relative="1" as="geometry">
            <mxPoint x="302" y="200" as="sourcePoint" />
            <mxPoint x="352" y="150" as="targetPoint" />
          </mxGeometry>
        </mxCell>
        <mxCell id="vp1pobiUoCR_NvqggfAx-3" value="查詢教室" style="text;strokeColor=none;align=center;fillColor=none;html=1;verticalAlign=middle;whiteSpace=wrap;rounded=0;" vertex="1" parent="1">
          <mxGeometry x="-28" y="110" width="60" height="30" as="geometry" />
        </mxCell>
        <mxCell id="vp1pobiUoCR_NvqggfAx-4" value="申請管理" style="text;strokeColor=none;align=center;fillColor=none;html=1;verticalAlign=middle;whiteSpace=wrap;rounded=0;" vertex="1" parent="1">
          <mxGeometry x="42" y="110" width="60" height="30" as="geometry" />
        </mxCell>
        <mxCell id="vp1pobiUoCR_NvqggfAx-5" value="使用者狀態管理" style="text;strokeColor=none;align=center;fillColor=none;html=1;verticalAlign=middle;whiteSpace=wrap;rounded=0;" vertex="1" parent="1">
          <mxGeometry x="112" y="110" width="90" height="30" as="geometry" />
        </mxCell>
        <mxCell id="vp1pobiUoCR_NvqggfAx-6" value="教室地圖" style="text;strokeColor=none;align=center;fillColor=none;html=1;verticalAlign=middle;whiteSpace=wrap;rounded=0;" vertex="1" parent="1">
          <mxGeometry x="212" y="110" width="60" height="30" as="geometry" />
        </mxCell>
        <mxCell id="vp1pobiUoCR_NvqggfAx-7" value="資訊查詢" style="text;strokeColor=none;align=center;fillColor=none;html=1;verticalAlign=middle;whiteSpace=wrap;rounded=0;" vertex="1" parent="1">
          <mxGeometry x="282" y="110" width="60" height="30" as="geometry" />
        </mxCell>
        <mxCell id="vp1pobiUoCR_NvqggfAx-8" value="登出" style="rounded=1;whiteSpace=wrap;html=1;fillColor=#808080;" vertex="1" parent="1">
          <mxGeometry x="542" y="110" width="50" height="30" as="geometry" />
        </mxCell>
        <mxCell id="vp1pobiUoCR_NvqggfAx-10" value="" style="rounded=0;whiteSpace=wrap;html=1;" vertex="1" parent="1">
          <mxGeometry x="-27" y="170" width="620" height="310" as="geometry" />
        </mxCell>
        <mxCell id="vp1pobiUoCR_NvqggfAx-11" value="" style="rounded=1;whiteSpace=wrap;html=1;" vertex="1" parent="1">
          <mxGeometry x="-17" y="190" width="600" height="40" as="geometry" />
        </mxCell>
        <mxCell id="vp1pobiUoCR_NvqggfAx-13" value="&lt;font style=&quot;font-size: 8px;&quot;&gt;教室代號&lt;/font&gt;" style="text;strokeColor=none;align=center;fillColor=none;html=1;verticalAlign=middle;whiteSpace=wrap;rounded=0;" vertex="1" parent="1">
          <mxGeometry x="-17" y="195" width="45" height="30" as="geometry" />
        </mxCell>
        <mxCell id="vp1pobiUoCR_NvqggfAx-14" value="&lt;font style=&quot;font-size: 8px;&quot;&gt;樓層&lt;/font&gt;" style="text;strokeColor=none;align=center;fillColor=none;html=1;verticalAlign=middle;whiteSpace=wrap;rounded=0;" vertex="1" parent="1">
          <mxGeometry x="28" y="195" width="45" height="30" as="geometry" />
        </mxCell>
        <mxCell id="vp1pobiUoCR_NvqggfAx-15" value="&lt;font style=&quot;font-size: 8px;&quot;&gt;出借時間&lt;/font&gt;" style="text;strokeColor=none;align=center;fillColor=none;html=1;verticalAlign=middle;whiteSpace=wrap;rounded=0;" vertex="1" parent="1">
          <mxGeometry x="123" y="195" width="45" height="30" as="geometry" />
        </mxCell>
        <mxCell id="vp1pobiUoCR_NvqggfAx-16" value="&lt;font style=&quot;font-size: 8px;&quot;&gt;借用人&lt;/font&gt;" style="text;strokeColor=none;align=center;fillColor=none;html=1;verticalAlign=middle;whiteSpace=wrap;rounded=0;" vertex="1" parent="1">
          <mxGeometry x="73" y="195" width="45" height="30" as="geometry" />
        </mxCell>
        <mxCell id="vp1pobiUoCR_NvqggfAx-17" value="&lt;font style=&quot;font-size: 8px;&quot;&gt;結束時間&lt;/font&gt;" style="text;strokeColor=none;align=center;fillColor=none;html=1;verticalAlign=middle;whiteSpace=wrap;rounded=0;" vertex="1" parent="1">
          <mxGeometry x="171" y="195" width="45" height="30" as="geometry" />
        </mxCell>
        <mxCell id="vp1pobiUoCR_NvqggfAx-18" value="&lt;font style=&quot;font-size: 8px;&quot;&gt;出租結果&lt;/font&gt;" style="text;strokeColor=none;align=center;fillColor=none;html=1;verticalAlign=middle;whiteSpace=wrap;rounded=0;" vertex="1" parent="1">
          <mxGeometry x="220.5" y="195" width="45" height="30" as="geometry" />
        </mxCell>
      </root>
    </mxGraphModel>
  </diagram>
</mxfile>
